# xmcd
#
# Track frame offsets:
#	300
#	9180
#	21167
#	31877
#	45113
#	55034
#	65252
#	76817
#	89251
#	99836
#	108486
#	127744
#	141558
#	158931
#	169524
#	182134
#	194457
#	209058
#	221897
#	233764
#
# Disc length: 3342 seconds
#
# Revision: 2
# Processed by: cddbd v1.5.2PL0 Copyright (c) Steve Scherf et al.
# Submitted via: audiograbber 1.83.01
#
DISCID=040d0a14
DTITLE=Lynn Anderson - 20 Greatest Hits and Favourites
DYEAR=1900
DGENRE=
TTITLE0=Rocky Top
TTITLE1=How Can I Unlove You?
TTITLE2=If I Kiss You
TTITLE3=Keep Me In Mind
TTITLE4=What A Man, My Man Is
TTITLE5=Fool Me
TTITLE6=You're My Man
TTITLE7=I've Never Loved Anyone More
TTITLE8=I've Been Everywhere
TTITLE9=Ride, Ride, Ride
TTITLE10=Love Has No Pride
TTITLE11=Paradise
TTITLE12=Midnight Train To Georgia
TTITLE13=Silver Treads and Golden Needles
TTITLE14=It Must Be Love
TTITLE15=Love Of The Common People
TTITLE16=Sing Me A Song
TTITLE17=Mansion On A Hill
TTITLE18=You Don't Have To Say You Love Me
TTITLE19=Close To You
EXTD=
EXTT0=
EXTT1=
EXTT2=
EXTT3=
EXTT4=
EXTT5=
EXTT6=
EXTT7=
EXTT8=
EXTT9=
EXTT10=
EXTT11=
EXTT12=
EXTT13=
EXTT14=
EXTT15=
EXTT16=
EXTT17=
EXTT18=
EXTT19=
PLAYORDER=
